<?xml version="1.0" encoding="utf-8"?>
<!DOCTYPE svg PUBLIC "-//W3C//DTD SVG 1.1//EN" "http://www.w3.org/Graphics/SVG/1.1/DTD/svg11.dtd">
<svg xmlns="http://www.w3.org/2000/svg" xmlns:xlink="http://www.w3.org/1999/xlink"
version="1.1" width="125" height="25" viewBox="0 0 80 16" class="disp-inline-block" aria-label="Sonos" role="img">
        <path id="logo-sonos" fill-rule="nonzero" d="M43.335.666h2.805v15.012l-9.475-8.82v8.365H33.86V.249l9.475 8.833V.666zM29.425 7.97c0 4.334-3.525 7.86-7.858 7.86-4.334 0-7.859-3.526-7.859-7.86 0-4.334 3.525-7.86 7.859-7.86 4.333 0 7.858 3.526 7.858 7.86zm-2.88 0c0-2.78-2.237-5.042-4.991-5.042-2.754 0-4.978 2.262-4.978 5.042s2.236 5.042 4.978 5.042c2.754 0 4.99-2.262 4.99-5.042zM8.92 8.096c-.746-.569-1.731-1.023-3.184-1.491-2.843-.91-2.843-1.617-2.843-1.971 0-.809.897-1.643 2.413-1.643 1.276 0 2.262.632 2.628.91l.202.152 2.262-1.53-.253-.29C10.07 2.144 8.326.11 5.294.11 3.84.11 2.502.578 1.529 1.424.556 2.271 0 3.434 0 4.646c0 1.29.569 2.376 1.68 3.223.746.568 1.731 1.023 3.184 1.49 2.843.898 2.843 1.618 2.843 1.972 0 .809-.897 1.643-2.413 1.643-1.276 0-2.262-.632-2.628-.91l-.202-.152-2.262 1.53.253.29c.076.088 1.82 2.11 4.839 2.11 1.453 0 2.792-.467 3.765-1.314.973-.847 1.528-2.022 1.528-3.222 0-1.277-.555-2.35-1.667-3.21zm41.68-.063c0-4.334 3.525-7.86 7.859-7.86 4.333 0 7.858 3.526 7.858 7.86 0 4.334-3.525 7.86-7.858 7.86-4.334 0-7.859-3.526-7.859-7.86zm2.868 0c0 2.78 2.236 5.042 4.978 5.042 2.754 0 4.978-2.262 4.978-5.042S61.188 2.99 58.446 2.99c-2.742 0-4.978 2.262-4.978 5.042zm17.625-.14c.745.57 1.73 1.024 3.184 1.492 2.842.91 2.842 1.617 2.842 1.971 0 .809-.897 1.643-2.413 1.643-1.276 0-2.261-.632-2.628-.91l-.202-.151-2.261 1.529.252.29c.076.089 1.82 2.11 4.84 2.11 1.452 0 2.791-.467 3.764-1.314.973-.846 1.529-2.009 1.529-3.222 0-1.289-.569-2.376-1.68-3.222-.746-.569-1.731-1.024-3.184-1.491-2.843-.91-2.843-1.618-2.843-1.972 0-.808.897-1.642 2.413-1.642 1.276 0 2.262.632 2.628.91l.202.151 2.262-1.529-.253-.29c-.076-.089-1.82-2.11-4.839-2.11-1.453 0-2.792.467-3.765 1.313-.973.847-1.528 2.022-1.528 3.223.012 1.289.568 2.375 1.68 3.222z"></path>
    </svg>