<?xml version="1.0" encoding="UTF-8"?>
<!-- Generator: Adobe Illustrator 16.0.4, SVG Export Plug-In . SVG Version: 6.00 Build 0)  -->
<!DOCTYPE svg PUBLIC "-//W3C//DTD SVG 1.1//EN" "http://www.w3.org/Graphics/SVG/1.1/DTD/svg11.dtd">
<svg version="1.1" id="Layer_2" xmlns="http://www.w3.org/2000/svg" xmlns:xlink="http://www.w3.org/1999/xlink" x="0px" y="0px" width="24px" height="24px" viewBox="0 0 24 24" enable-background="new 0 0 24 24" xml:space="preserve">
<path fill="black" d="M2.98,14c0.02,1.1,1,0.97,1,0.97h2.98l3.03,3c0,0,0.99,0.13,1-1.04c0.01-2.36,0-8.02,0-8.94c0-1.17-1-1-1-1  l-3.01,3.03h-3c0,0-1-0.03-1,1.03C2.98,12.11,2.96,12.9,2.98,14z"/>
<path fill="black" d="M21,12.5c0,4.14-1.74,7.5-3.88,7.5c-0.05,0-0.13-0.02-0.13-0.02s3-2,3-7.46c0-5.56-3-7.52-3-7.52  s0.1,0,0.14,0C19.26,5,21,8.36,21,12.5z"/>
<path fill="black" d="M17.98,12.49c0,3.04-1.3,5.51-2.89,5.51c-0.04,0-0.1-0.01-0.1-0.01S17,16.56,17,12.55  c0-4.09-2.01-5.56-2.01-5.56s0.08,0,0.1,0C16.69,6.98,17.98,9.45,17.98,12.49z"/>
<path fill="black" d="M14.98,12.49c0,1.93-0.86,3.49-1.92,3.49c-0.02,0-0.07-0.01-0.07-0.01s1.02-0.88,1.02-3.42  c0-2.59-1.02-3.55-1.02-3.55s0.05,0,0.07,0C14.12,9,14.98,10.56,14.98,12.49z"/>
</svg>